<svg width="498" height="498" viewBox="0 0 498 498" fill="none" xmlns="http://www.w3.org/2000/svg">
<path fill-rule="evenodd" clip-rule="evenodd" d="M497.779 248.889C497.779 386.347 386.347 497.779 248.889 497.779C111.432 497.779 0 386.347 0 248.889C0 111.432 111.432 0 248.889 0C386.347 0 497.779 111.432 497.779 248.889Z" fill="#231F20"/>
<path fill-rule="evenodd" clip-rule="evenodd" d="M120.394 244.846C178.333 220.548 248.42 185.972 309.162 162.61C365.233 142.051 364.298 147.658 355.888 203.728C349.346 248.584 341.87 293.44 334.394 338.296C331.59 359.788 320.377 371.003 297.014 357.92L224.122 306.523C213.844 298.112 216.648 291.571 225.058 283.16L292.341 219.615C310.097 201.859 301.686 195.318 281.128 209.335L188.612 271.946C175.529 281.291 161.512 281.291 146.56 276.619L114.786 265.404C94.2277 257.928 110.114 249.519 120.394 244.846Z" fill="white"/>
</svg>
