<svg width="498" height="498" viewBox="0 0 498 498" fill="none" xmlns="http://www.w3.org/2000/svg">
<path fill-rule="evenodd" clip-rule="evenodd" d="M497.777 248.893C497.777 386.347 386.347 497.787 248.889 497.787C111.431 497.787 0 386.347 0 248.893C0 111.44 111.431 0 248.889 0C386.347 0 497.777 111.44 497.777 248.893Z" fill="#231F20"/>
<path fill-rule="evenodd" clip-rule="evenodd" d="M182.887 130.08H314.888C344.606 130.08 368.794 154.266 368.794 183.986V315.293C368.794 345.013 344.606 369.2 314.888 369.2H182.887C153.17 369.2 128.982 345.013 128.982 315.293V183.986C128.982 154.266 153.17 130.08 182.887 130.08ZM248.542 197.813H249.234C277.568 197.813 301.066 221.306 301.066 249.64C301.066 278.666 277.568 302.16 249.234 302.16H248.542C220.207 302.16 196.71 278.666 196.71 249.64C196.71 221.306 220.207 197.813 248.542 197.813ZM248.542 170.853H249.234C292.082 170.853 328.019 206.786 328.019 249.64C328.019 293.173 292.082 328.426 249.234 328.426H248.542C205.694 328.426 170.447 293.173 170.447 249.64C170.447 206.786 205.694 170.853 248.542 170.853ZM326.636 155.653C335.622 155.653 343.223 163.253 343.223 172.24C343.223 181.226 335.622 188.826 326.636 188.826C316.962 188.826 310.05 181.226 310.05 172.24C310.05 163.253 316.962 155.653 326.636 155.653ZM182.196 105.2H315.579C358.427 105.2 393.674 140.44 393.674 183.293V315.986C393.674 358.84 358.427 394.08 315.579 394.08H182.196C139.348 394.08 104.102 358.84 104.102 315.986V183.293C104.102 140.44 139.348 105.2 182.196 105.2Z" fill="white"/>
</svg>
