<svg width="497" height="497" viewBox="0 0 497 497" fill="none" xmlns="http://www.w3.org/2000/svg">
<path d="M248.499 0C111.824 0 0 111.824 0 248.5C0 385.178 111.824 497 248.499 497C385.175 497 497 385.178 497 248.5C497 111.824 386.417 0 248.499 0Z" fill="#1F201F"/>
<path d="M350.584 331.779C310.828 307.332 263.726 294.937 210.581 294.937C182.115 294.937 151.623 298.53 119.95 305.614L119.9 305.625L119.85 305.642C112.425 308.117 105.93 315.632 108.516 324.682L108.529 324.724C110.867 331.734 117.053 336.627 123.576 336.627C124.892 336.627 126.225 336.438 127.541 336.064C157.322 329.261 185.708 325.811 211.913 325.811C258.695 325.811 300.216 336.793 335.326 358.454C337.912 360.174 340.8 361.083 343.676 361.083C348.826 361.083 353.644 358.288 356.891 353.416L356.926 353.364L356.954 353.305C359.162 348.894 359.564 343.759 358.031 339.572C356.73 336.023 354.157 333.33 350.584 331.779Z" fill="white"/>
<path d="M380.24 263.567C356.398 248.959 329.025 237.577 298.877 229.734C269.257 222.03 238.468 218.124 207.367 218.124C174.015 218.124 142.197 222.615 112.79 231.474C108.027 232.673 104.116 235.913 101.771 240.601C99.5616 245.022 98.9918 250.358 100.212 255.238C102.161 263.032 109.802 268.476 118.795 268.476C120.553 268.476 122.299 268.262 123.985 267.84L124.015 267.834L124.046 267.823C149.4 259.773 177.434 255.693 207.373 255.693C262.895 255.693 318.165 270.005 359.021 294.961C361.885 296.997 365.211 298.073 368.641 298.073C374.925 298.073 381.16 294.598 385.319 288.773C388.279 284.629 389.234 279.262 387.94 274.046C386.768 269.324 383.89 265.411 380.24 263.567Z" fill="white"/>
<path d="M420.737 198.942C419.101 192.73 415.247 187.667 409.884 184.685C383.725 169.132 352.148 157.162 316.031 149.111C283.38 141.829 247.305 137.981 211.706 137.981C191.03 137.981 170.755 139.249 151.447 141.75C132.254 144.236 114.458 147.882 98.5523 152.586L98.5176 152.595C86.7637 156.514 80.0842 169.316 83.6317 181.131L83.6404 181.162C86.7528 190.495 95.7923 197.015 105.628 197.013C107.831 197.013 110.034 196.687 112.188 196.041C139.31 187.595 174.672 182.943 211.756 182.943C279.602 182.943 343.228 197.618 386.324 223.202L386.348 223.218C389.967 225.227 394.186 226.291 398.556 226.291C406.638 226.291 414.469 222.639 418.501 216.991L418.536 216.943L418.564 216.893C421.537 211.54 422.329 204.998 420.737 198.942Z" fill="white"/>
</svg>
