<svg id="Layer_1" data-name="Layer 1" xmlns="http://www.w3.org/2000/svg" viewBox="0 0 53.34 71.44">
  <defs>
    <style>.cls-1{fill:none;stroke:#231f20;stroke-miterlimit:10;stroke-width:7px;}.cls-2{fill:#231f20;}</style>
  </defs>
  <title>h3</title>
  <path class="cls-1" d="M270.69,268H224.35V203.54h46.34Z" transform="translate(-220.85 -200.04)"/>
  <path class="cls-2" d="M235.35,257.55c-.67-.1-1-.24-1-.4V214.69c0-.36,1.26-.55,3.78-.55a19.39,19.39,0,0,1,2.8.16c.65.1,1,.23,1,.39v18.67a15.75,15.75,0,0,1,3.9-2.84,9.49,9.49,0,0,1,4.34-1.13,11.15,11.15,0,0,1,5.67,1.41,9.67,9.67,0,0,1,3.75,3.81,11.18,11.18,0,0,1,1.31,5.4v17.14c0,.37-1.26.55-3.78.55a19.94,19.94,0,0,1-2.78-.15c-.67-.1-1-.24-1-.4V241.47a5.63,5.63,0,0,0-1.35-3.93,4.43,4.43,0,0,0-3.47-1.5,10.72,10.72,0,0,0-6.59,2.5v18.61c0,.37-1.26.55-3.78.55A19.94,19.94,0,0,1,235.35,257.55Z" transform="translate(-220.85 -200.04)"/>
  <path class="cls-2" d="M254.64,223.13a.26.26,0,0,1,0-.14,3.43,3.43,0,0,1,.15-.87c.11-.35.2-.53.3-.53a5.5,5.5,0,0,0,1.51.21,2.27,2.27,0,0,0,1.08-.23,1.68,1.68,0,0,0,.7-.61,1.52,1.52,0,0,0,.23-.82,1.2,1.2,0,0,0-.47-1,1.79,1.79,0,0,0-1.16-.39l-.4,0c-.09,0-.23-.18-.43-.52a1.27,1.27,0,0,1-.26-.64l1.73-1.77H255c-.08,0-.12-.23-.12-.7s0-.7.12-.7h4.29s.05.06.08.16a2.35,2.35,0,0,1,0,.54,1.57,1.57,0,0,1-.06.58l-.06.12-1.63,1.57a3.16,3.16,0,0,1,1.38.39,2.53,2.53,0,0,1,1,.94,2.64,2.64,0,0,1,.36,1.39,3.23,3.23,0,0,1-.43,1.61,3.14,3.14,0,0,1-1.32,1.19,4.73,4.73,0,0,1-2.16.45A6.65,6.65,0,0,1,254.64,223.13Z" transform="translate(-220.85 -200.04)"/>
</svg>