<svg width="65" height="102" viewBox="0 0 65 102" fill="none" xmlns="http://www.w3.org/2000/svg">
<path d="M61.3386 83.402H4V4H61.3386V83.402Z" stroke="#231F20" stroke-width="7" stroke-miterlimit="10"/>
<path d="M17.6123 70.53C16.7833 70.4068 16.375 70.2344 16.375 70.0373V17.735C16.375 17.2915 17.9341 17.0575 21.0522 17.0575C22.2103 17.0398 23.3682 17.1057 24.5167 17.2546C25.321 17.3778 25.7541 17.5379 25.7541 17.735V40.7327C27.1726 39.3268 28.8002 38.1469 30.5797 37.2344C32.2323 36.35 34.0738 35.8727 35.9498 35.8425C38.4019 35.7903 40.8236 36.3899 42.9655 37.5793C44.9245 38.6786 46.5326 40.3051 47.6056 42.2725C48.6996 44.3186 49.2571 46.6065 49.2265 48.9242V70.0373C49.2265 70.4931 47.6674 70.7148 44.5493 70.7148C43.3998 70.7331 42.2504 70.6713 41.1095 70.53C40.2805 70.4068 39.8722 70.2344 39.8722 70.0373V50.7227C39.9558 48.956 39.3583 47.2242 38.2018 45.8817C37.6673 45.2774 37.0052 44.7984 36.2629 44.479C35.5206 44.1595 34.7165 44.0076 33.9082 44.034C30.9192 44.1162 28.0457 45.2013 25.7541 47.1135V70.0373C25.7541 70.4931 24.195 70.7148 21.0769 70.7148C19.9191 70.7343 18.7614 70.6725 17.6123 70.53Z" fill="#231F20"/>
<path d="M41.4806 28.1314C41.4648 28.075 41.4648 28.0153 41.4806 27.9589C41.4959 27.5952 41.5582 27.235 41.6662 26.8872C41.8023 26.4561 41.9137 26.2344 42.0374 26.2344C42.6451 26.4065 43.274 26.4936 43.9058 26.4931C44.3679 26.5096 44.8269 26.4122 45.2422 26.2097C45.596 26.0453 45.8962 25.7848 46.1083 25.4583C46.2979 25.1555 46.3966 24.8051 46.3929 24.4483C46.4022 24.2116 46.3542 23.9761 46.253 23.7618C46.1518 23.5474 46.0003 23.3604 45.8114 23.2165C45.4045 22.8934 44.8963 22.7233 44.376 22.7361H43.8811C43.7697 22.7361 43.5965 22.5143 43.349 22.0955C43.1707 21.8674 43.0593 21.5945 43.0273 21.3072L45.1679 19.1269H41.9261C41.8271 19.1269 41.7776 18.8435 41.7776 18.2646C41.7776 17.6857 41.7776 17.4023 41.9261 17.4023H47.2343C47.2343 17.4023 47.2961 17.4763 47.3333 17.5994C47.3589 17.8204 47.3589 18.0436 47.3333 18.2646C47.3535 18.5053 47.3284 18.7476 47.259 18.9791L47.1848 19.1269L45.1679 21.0608C45.7666 21.0885 46.3508 21.2529 46.8755 21.5412C47.3872 21.8063 47.8154 22.207 48.1128 22.6991C48.4173 23.2179 48.5715 23.8106 48.5582 24.4113C48.5582 25.1073 48.3747 25.7912 48.0262 26.3945C47.6349 27.0295 47.0677 27.5385 46.3929 27.8604C45.5583 28.2523 44.6426 28.4422 43.7202 28.4147C42.9642 28.4231 42.2105 28.3278 41.4806 28.1314Z" fill="#231F20"/>
<path d="M3.2087 94.2239H3.7367C3.9367 94.2239 4.1047 94.2039 4.2407 94.1639C4.3847 94.1239 4.5007 94.0519 4.5887 93.9479C4.6767 93.8439 4.7407 93.7079 4.7807 93.5399C4.8207 93.3639 4.8407 93.1479 4.8407 92.8919C4.8407 92.3799 4.7567 92.0319 4.5887 91.8479C4.4207 91.6559 4.1367 91.5599 3.7367 91.5599H3.2087V94.2239ZM3.2087 98.9999H1.7207V90.3359H3.8087C4.6407 90.3359 5.2687 90.5319 5.6927 90.9239C6.1167 91.3159 6.3287 91.9719 6.3287 92.8919C6.3287 93.2439 6.2967 93.5439 6.2327 93.7919C6.1767 94.0399 6.0967 94.2519 5.9927 94.4279C5.8967 94.5959 5.7847 94.7319 5.6567 94.8359C5.5367 94.9399 5.4127 95.0199 5.2847 95.0759L6.5447 98.9999H5.0327L3.9767 95.4119C3.8807 95.4279 3.7607 95.4399 3.6167 95.4479C3.4807 95.4479 3.3447 95.4479 3.2087 95.4479V98.9999Z" fill="black"/>
<path d="M7.3007 91.5599V90.3359H8.6447V91.5599H7.3007ZM7.3007 98.9999V92.5439H8.6447V98.9999H7.3007Z" fill="black"/>
<path d="M12.3489 94.7519V94.5839C12.3489 94.2079 12.2849 93.9399 12.1569 93.7799C12.0289 93.6119 11.8449 93.5279 11.6049 93.5279C11.3649 93.5279 11.1809 93.6119 11.0529 93.7799C10.9249 93.9399 10.8609 94.2079 10.8609 94.5839V96.9599C10.8609 97.3359 10.9249 97.6079 11.0529 97.7759C11.1809 97.9359 11.3649 98.0159 11.6049 98.0159C11.8449 98.0159 12.0289 97.9359 12.1569 97.7759C12.2849 97.6079 12.3489 97.3359 12.3489 96.9599V96.5519H13.6929V96.7199C13.6929 97.0719 13.6569 97.3959 13.5849 97.6919C13.5129 97.9879 13.3929 98.2439 13.2249 98.4599C13.0569 98.6679 12.8409 98.8319 12.5769 98.9519C12.3129 99.0639 11.9889 99.1199 11.6049 99.1199C11.2209 99.1199 10.8969 99.0639 10.6329 98.9519C10.3689 98.8319 10.1529 98.6679 9.98486 98.4599C9.81686 98.2439 9.69686 97.9879 9.62486 97.6919C9.55286 97.3959 9.51686 97.0719 9.51686 96.7199V94.8239C9.51686 94.4719 9.55286 94.1479 9.62486 93.8519C9.69686 93.5559 9.81686 93.3039 9.98486 93.0959C10.1529 92.8799 10.3689 92.7159 10.6329 92.6039C10.8969 92.4839 11.2209 92.4239 11.6049 92.4239C11.9809 92.4239 12.3009 92.4799 12.5649 92.5919C12.8289 92.7039 13.0409 92.8639 13.2009 93.0719C13.3689 93.2719 13.4889 93.5159 13.5609 93.8039C13.6409 94.0919 13.6849 94.4079 13.6929 94.7519H12.3489Z" fill="black"/>
<path d="M17.4409 94.5839L19.0009 98.9999H17.6449L16.5649 95.7959H16.5409L15.9049 96.7439V98.9999H14.5609V90.3359H15.9049V94.8239H15.9289L17.4049 92.5439H18.8449L17.4409 94.5839Z" fill="black"/>
<path d="M21.9051 98.9999V90.3359H23.3931V93.8639H24.9771V90.3359H26.4651V98.9999H24.9771V95.1599H23.3931V98.9999H21.9051Z" fill="black"/>
<path d="M30.2331 94.9199V94.5839C30.2331 94.2079 30.1691 93.9399 30.0411 93.7799C29.9131 93.6119 29.7291 93.5279 29.4891 93.5279C29.2491 93.5279 29.0651 93.6119 28.9371 93.7799C28.8091 93.9399 28.7451 94.2079 28.7451 94.5839V94.9199H30.2331ZM31.5771 96.0239H28.7451V96.9599C28.7451 97.3359 28.8091 97.6079 28.9371 97.7759C29.0651 97.9359 29.2491 98.0159 29.4891 98.0159C29.7291 98.0159 29.9131 97.9359 30.0411 97.7759C30.1691 97.6079 30.2331 97.3359 30.2331 96.9599V96.8159H31.5771C31.5691 97.1599 31.5251 97.4719 31.4451 97.7519C31.3731 98.0319 31.2531 98.2759 31.0851 98.4839C30.9171 98.6839 30.7011 98.8399 30.4371 98.9519C30.1811 99.0639 29.8651 99.1199 29.4891 99.1199C29.1051 99.1199 28.7811 99.0639 28.5171 98.9519C28.2531 98.8319 28.0371 98.6679 27.8691 98.4599C27.7011 98.2439 27.5811 97.9879 27.5091 97.6919C27.4371 97.3959 27.4011 97.0719 27.4011 96.7199V94.8239C27.4011 94.4719 27.4371 94.1479 27.5091 93.8519C27.5811 93.5559 27.7011 93.3039 27.8691 93.0959C28.0371 92.8799 28.2531 92.7159 28.5171 92.6039C28.7811 92.4839 29.1051 92.4239 29.4891 92.4239C29.8731 92.4239 30.1971 92.4839 30.4611 92.6039C30.7251 92.7159 30.9411 92.8799 31.1091 93.0959C31.2771 93.3039 31.3971 93.5559 31.4691 93.8519C31.5411 94.1479 31.5771 94.4719 31.5771 94.8239V96.0239Z" fill="black"/>
<path d="M32.4451 98.9999V92.5439H33.7171V93.1919C33.8611 93.0719 33.9891 92.9639 34.1011 92.8679C34.2131 92.7719 34.3291 92.6919 34.4491 92.6279C34.5691 92.5639 34.7011 92.5159 34.8451 92.4839C34.9891 92.4439 35.1571 92.4239 35.3491 92.4239C35.7091 92.4239 35.9851 92.5439 36.1771 92.7839C36.3771 93.0239 36.4771 93.3559 36.4771 93.7799V98.9999H35.1331V93.9959C35.1331 93.8359 35.0891 93.7199 35.0011 93.6479C34.9131 93.5679 34.7971 93.5279 34.6531 93.5279C34.5091 93.5279 34.3691 93.5679 34.2331 93.6479C34.0971 93.7279 33.9491 93.8239 33.7891 93.9359V98.9999H32.4451Z" fill="black"/>
<path d="M37.4171 98.9999V92.5439H38.6891V93.1919C38.8331 93.0719 38.9611 92.9639 39.0731 92.8679C39.1851 92.7719 39.3011 92.6919 39.4211 92.6279C39.5411 92.5639 39.6731 92.5159 39.8171 92.4839C39.9611 92.4439 40.1291 92.4239 40.3211 92.4239C40.6811 92.4239 40.9571 92.5439 41.1491 92.7839C41.3491 93.0239 41.4491 93.3559 41.4491 93.7799V98.9999H40.1051V93.9959C40.1051 93.8359 40.0611 93.7199 39.9731 93.6479C39.8851 93.5679 39.7691 93.5279 39.6251 93.5279C39.4811 93.5279 39.3411 93.5679 39.2051 93.6479C39.0691 93.7279 38.9211 93.8239 38.7611 93.9359V98.9999H37.4171Z" fill="black"/>
<path d="M45.1492 94.9199V94.5839C45.1492 94.2079 45.0852 93.9399 44.9572 93.7799C44.8292 93.6119 44.6452 93.5279 44.4052 93.5279C44.1652 93.5279 43.9812 93.6119 43.8532 93.7799C43.7252 93.9399 43.6612 94.2079 43.6612 94.5839V94.9199H45.1492ZM46.4932 96.0239H43.6612V96.9599C43.6612 97.3359 43.7252 97.6079 43.8532 97.7759C43.9812 97.9359 44.1652 98.0159 44.4052 98.0159C44.6452 98.0159 44.8292 97.9359 44.9572 97.7759C45.0852 97.6079 45.1492 97.3359 45.1492 96.9599V96.8159H46.4932C46.4852 97.1599 46.4412 97.4719 46.3612 97.7519C46.2892 98.0319 46.1692 98.2759 46.0012 98.4839C45.8332 98.6839 45.6172 98.8399 45.3532 98.9519C45.0972 99.0639 44.7812 99.1199 44.4052 99.1199C44.0212 99.1199 43.6972 99.0639 43.4332 98.9519C43.1692 98.8319 42.9532 98.6679 42.7852 98.4599C42.6172 98.2439 42.4972 97.9879 42.4252 97.6919C42.3532 97.3959 42.3172 97.0719 42.3172 96.7199V94.8239C42.3172 94.4719 42.3532 94.1479 42.4252 93.8519C42.4972 93.5559 42.6172 93.3039 42.7852 93.0959C42.9532 92.8799 43.1692 92.7159 43.4332 92.6039C43.6972 92.4839 44.0212 92.4239 44.4052 92.4239C44.7892 92.4239 45.1132 92.4839 45.3772 92.6039C45.6412 92.7159 45.8572 92.8799 46.0252 93.0959C46.1932 93.3039 46.3132 93.5559 46.3852 93.8519C46.4572 94.1479 46.4932 94.4719 46.4932 94.8239V96.0239Z" fill="black"/>
<path d="M49.8092 94.3319C49.7132 93.7959 49.4572 93.5279 49.0412 93.5279C48.8652 93.5279 48.7212 93.5719 48.6092 93.6599C48.5052 93.7479 48.4532 93.8759 48.4532 94.0439C48.4532 94.2119 48.5132 94.3679 48.6332 94.5119C48.7612 94.6479 48.9172 94.7879 49.1012 94.9319C49.2932 95.0679 49.4972 95.2159 49.7132 95.3759C49.9292 95.5279 50.1292 95.6999 50.3132 95.8919C50.5052 96.0759 50.6612 96.2919 50.7812 96.5399C50.9092 96.7799 50.9732 97.0599 50.9732 97.3799C50.9732 97.6679 50.9252 97.9199 50.8292 98.1359C50.7412 98.3519 50.6132 98.5359 50.4452 98.6879C50.2772 98.8319 50.0772 98.9399 49.8452 99.0119C49.6132 99.0839 49.3612 99.1199 49.0892 99.1199C48.4972 99.1199 48.0332 98.9639 47.6972 98.6519C47.3612 98.3319 47.1412 97.8879 47.0372 97.3199L48.2132 96.9959C48.2532 97.2679 48.3332 97.5079 48.4532 97.7159C48.5812 97.9159 48.7972 98.0159 49.1012 98.0159C49.2772 98.0159 49.4212 97.9679 49.5332 97.8719C49.6452 97.7759 49.7012 97.6359 49.7012 97.4519C49.7012 97.2679 49.6372 97.0999 49.5092 96.9479C49.3892 96.7879 49.2332 96.6359 49.0412 96.4919C48.8572 96.3479 48.6572 96.1999 48.4412 96.0479C48.2252 95.8959 48.0212 95.7279 47.8292 95.5439C47.6452 95.3599 47.4892 95.1559 47.3612 94.9319C47.2412 94.7079 47.1812 94.4479 47.1812 94.1519C47.1812 93.8959 47.2252 93.6639 47.3132 93.4559C47.4092 93.2399 47.5372 93.0559 47.6972 92.9039C47.8652 92.7519 48.0572 92.6359 48.2732 92.5559C48.4892 92.4679 48.7252 92.4239 48.9812 92.4239C49.5092 92.4239 49.9412 92.5839 50.2772 92.9039C50.6212 93.2239 50.8452 93.6359 50.9492 94.1399L49.8092 94.3319Z" fill="black"/>
<path d="M54.1133 94.3319C54.0173 93.7959 53.7613 93.5279 53.3453 93.5279C53.1693 93.5279 53.0253 93.5719 52.9133 93.6599C52.8093 93.7479 52.7573 93.8759 52.7573 94.0439C52.7573 94.2119 52.8173 94.3679 52.9373 94.5119C53.0653 94.6479 53.2213 94.7879 53.4053 94.9319C53.5973 95.0679 53.8013 95.2159 54.0173 95.3759C54.2333 95.5279 54.4333 95.6999 54.6173 95.8919C54.8093 96.0759 54.9653 96.2919 55.0853 96.5399C55.2133 96.7799 55.2773 97.0599 55.2773 97.3799C55.2773 97.6679 55.2293 97.9199 55.1333 98.1359C55.0453 98.3519 54.9173 98.5359 54.7493 98.6879C54.5813 98.8319 54.3813 98.9399 54.1493 99.0119C53.9173 99.0839 53.6653 99.1199 53.3933 99.1199C52.8013 99.1199 52.3373 98.9639 52.0013 98.6519C51.6653 98.3319 51.4453 97.8879 51.3413 97.3199L52.5173 96.9959C52.5573 97.2679 52.6373 97.5079 52.7573 97.7159C52.8853 97.9159 53.1013 98.0159 53.4053 98.0159C53.5813 98.0159 53.7253 97.9679 53.8373 97.8719C53.9493 97.7759 54.0053 97.6359 54.0053 97.4519C54.0053 97.2679 53.9413 97.0999 53.8133 96.9479C53.6933 96.7879 53.5373 96.6359 53.3453 96.4919C53.1613 96.3479 52.9613 96.1999 52.7453 96.0479C52.5293 95.8959 52.3253 95.7279 52.1333 95.5439C51.9493 95.3599 51.7933 95.1559 51.6653 94.9319C51.5453 94.7079 51.4853 94.4479 51.4853 94.1519C51.4853 93.8959 51.5293 93.6639 51.6173 93.4559C51.7133 93.2399 51.8413 93.0559 52.0013 92.9039C52.1693 92.7519 52.3613 92.6359 52.5773 92.5559C52.7933 92.4679 53.0293 92.4239 53.2853 92.4239C53.8133 92.4239 54.2453 92.5839 54.5813 92.9039C54.9253 93.2239 55.1493 93.6359 55.2533 94.1399L54.1133 94.3319Z" fill="black"/>
<path d="M58.7293 94.9199V94.5839C58.7293 94.2079 58.6653 93.9399 58.5373 93.7799C58.4093 93.6119 58.2253 93.5279 57.9853 93.5279C57.7453 93.5279 57.5613 93.6119 57.4333 93.7799C57.3053 93.9399 57.2413 94.2079 57.2413 94.5839V94.9199H58.7293ZM60.0733 96.0239H57.2413V96.9599C57.2413 97.3359 57.3053 97.6079 57.4333 97.7759C57.5613 97.9359 57.7453 98.0159 57.9853 98.0159C58.2253 98.0159 58.4093 97.9359 58.5373 97.7759C58.6653 97.6079 58.7293 97.3359 58.7293 96.9599V96.8159H60.0733C60.0653 97.1599 60.0213 97.4719 59.9413 97.7519C59.8693 98.0319 59.7493 98.2759 59.5813 98.4839C59.4133 98.6839 59.1973 98.8399 58.9333 98.9519C58.6773 99.0639 58.3613 99.1199 57.9853 99.1199C57.6013 99.1199 57.2773 99.0639 57.0133 98.9519C56.7493 98.8319 56.5333 98.6679 56.3653 98.4599C56.1973 98.2439 56.0773 97.9879 56.0053 97.6919C55.9333 97.3959 55.8973 97.0719 55.8973 96.7199V94.8239C55.8973 94.4719 55.9333 94.1479 56.0053 93.8519C56.0773 93.5559 56.1973 93.3039 56.3653 93.0959C56.5333 92.8799 56.7493 92.7159 57.0133 92.6039C57.2773 92.4839 57.6013 92.4239 57.9853 92.4239C58.3693 92.4239 58.6933 92.4839 58.9573 92.6039C59.2213 92.7159 59.4373 92.8799 59.6053 93.0959C59.7733 93.3039 59.8933 93.5559 59.9653 93.8519C60.0373 94.1479 60.0733 94.4719 60.0733 94.8239V96.0239Z" fill="black"/>
<path d="M63.4854 92.5439H64.8414L63.1494 99.4799C63.0774 99.7759 62.9894 100.02 62.8854 100.212C62.7814 100.412 62.6534 100.572 62.5014 100.692C62.3494 100.812 62.1734 100.896 61.9734 100.944C61.7814 101 61.5614 101.028 61.3134 101.028H60.7494V99.9239H61.0734C61.4094 99.9239 61.6414 99.8359 61.7694 99.6599C61.8974 99.4839 61.9614 99.2239 61.9614 98.8799C61.9614 98.7439 61.9454 98.6079 61.9134 98.4719C61.8894 98.3359 61.8574 98.1879 61.8174 98.0279L60.4134 92.5439H61.7814L62.6454 96.6719H62.6694L63.4854 92.5439Z" fill="black"/>
</svg>
